<svg id="Layer_1" xmlns="http://www.w3.org/2000/svg" viewBox="0 0 512 512"><defs><linearGradient id="Gradient" x1="0%" y1="0%" x2="50%" y2="100%"><stop class="stop1" offset="0%"/><stop class="stop2" offset="100%"/></linearGradient><style>#path{fill:url(#Gradient);box-shadow:0 0 10px #0040ff}.stop1{stop-color:#0040ff}.stop2{stop-color:#00d5ff}</style></defs><path id="path" d="M418.121 93.867l.026-85.333a8.529 8.529 0 0 0-2.517-6.033 8.532 8.532 0 0 0-6.042-2.5h-93.867a8.532 8.532 0 0 0-7.364 4.215l-47.65 76.194-10.557 13.457H102.387a8.53 8.53 0 0 0-8.533 8.533v128.051a8.53 8.53 0 0 0 8.533 8.533h81.664l1.758 1.852-90.931 168.363a8.66 8.66 0 0 0-1.024 4.062v90.206c0 4.719 3.849 8.533 8.559 8.533h93.841a8.543 8.543 0 0 0 7.356-4.198l50.842-89.634 5.982-8.567h149.035a8.525 8.525 0 0 0 8.533-8.533V281.6a8.525 8.525 0 0 0-8.533-8.533h-81.681l-1.596-1.596 90.957-173.645a8.527 8.527 0 0 0 .972-3.959z"/></svg>