<svg xmlns="http://www.w3.org/2000/svg" width="12" height="15.531" viewBox="0 0 12 15.531"><defs><linearGradient id="Gradient" x1="0%" y1="0%" x2="50%" y2="100%"><stop class="stop1" offset="0%"/><stop class="stop2" offset="100%"/></linearGradient><style>#path{fill:url(#Gradient);box-shadow:0 0 10px #0040ff}.stop1{stop-color:#0040ff}.stop2{stop-color:#00d5ff}.cls-1{fill:#000;fill-rule:evenodd}</style></defs><path id="path" class="cls-1" d="M814.1 252.249v-3.866h2.514a4.208 4.208 0 0 1 1.129.127 1.9 1.9 0 0 1 .719.362 1.274 1.274 0 0 1 .383.576 2.463 2.463 0 0 1 .112.766 2.852 2.852 0 0 1-.1.735 1.567 1.567 0 0 1-.352.65 1.825 1.825 0 0 1-.708.468 3.169 3.169 0 0 1-1.166.182H814.1zm2.109-10.107a5 5 0 0 1 1.049.1 1.779 1.779 0 0 1 .73.319 1.329 1.329 0 0 1 .426.591 2.644 2.644 0 0 1 .138.921 2.2 2.2 0 0 1-.176.938 1.366 1.366 0 0 1-.511.585 2.222 2.222 0 0 1-.815.3 6.146 6.146 0 0 1-1.075.086H814.1v-3.834h2.109zm-5.708-2.695v15.517h6.2a7.965 7.965 0 0 0 2.481-.356 5.322 5.322 0 0 0 1.827-.991 4.213 4.213 0 0 0 1.123-1.486 4.43 4.43 0 0 0 .384-1.842 3.125 3.125 0 0 0-.735-2.151 4.3 4.3 0 0 0-2.268-1.2 5.16 5.16 0 0 0 1.2-.607 3.626 3.626 0 0 0 .82-.772 2.906 2.906 0 0 0 .467-.909 3.419 3.419 0 0 0 .149-1.007 4.475 4.475 0 0 0-.325-1.736 3.2 3.2 0 0 0-1.038-1.32 5.222 5.222 0 0 0-1.843-.842 10.894 10.894 0 0 0-2.737-.3H810.5z" transform="translate(-810.5 -239.438)"/></svg>