<svg xmlns="http://www.w3.org/2000/svg" width="920" height="707" viewBox="0 0 920 707"><defs><linearGradient id="gr" x2="75%" y2="75%"><stop class="stop1" offset="0%"/><stop class="stop2" offset="100%"/></linearGradient><radialGradient id="radialGradient"><stop offset="0%" stop-color="#fff"/><stop offset="100%" stop-color="#fff" stop-opacity="0"/></radialGradient><mask id="rmask" maskContentUnits="objectBoundingBox" x="0" y="0" width="1" height="1"><circle cx=".5" cy=".5" r=".5" fill="url(#radialGradient)"/></mask><style>.stop1,.stop2{stop-color:#0040ff;stop-opacity:.25}.stop2{stop-color:#00d5ff}.cls-1{fill:url(#gr);fill-rule:evenodd;mask:url(#rmask)}</style></defs><path class="cls-1" d="M460-213c254.05 0 460 205.949 460 460S714.05 707 460 707 0 501.051 0 247s205.949-460 460-460zm0 .92c253.54 0 459.08 205.537 459.08 459.08S713.54 706.08 460 706.08.92 500.543.92 247 206.457-212.08 460-212.08zm0 12.88C706.43-199.2 906.2.571 906.2 247S706.43 693.2 460 693.2 13.8 493.429 13.8 247 213.571-199.2 460-199.2zm0 .92c245.92 0 445.28 199.359 445.28 445.28S705.92 692.28 460 692.28 14.72 492.921 14.72 247 214.079-198.28 460-198.28zm0 12.88c238.81 0 432.4 193.592 432.4 432.4S698.81 679.4 460 679.4 27.6 485.808 27.6 247 221.192-185.4 460-185.4zm0 .92C698.3-184.48 891.48 8.7 891.48 247S698.3 678.48 460 678.48 28.52 485.3 28.52 247 221.7-184.48 460-184.48zm0 12.88c231.19 0 418.6 187.414 418.6 418.6S691.19 665.6 460 665.6 41.4 478.186 41.4 247 228.814-171.6 460-171.6zm0 .92c230.68 0 417.68 187 417.68 417.68S690.68 664.68 460 664.68 42.32 477.678 42.32 247 229.322-170.68 460-170.68zm0 12.88c223.56 0 404.8 181.235 404.8 404.8S683.56 651.8 460 651.8 55.2 470.565 55.2 247 236.435-157.8 460-157.8zm0 .92c223.06 0 403.88 180.823 403.88 403.88S683.06 650.88 460 650.88 56.12 470.057 56.12 247 236.943-156.88 460-156.88zm0 12.88c215.94 0 391 175.057 391 391S675.94 638 460 638 69 462.943 69 247s175.057-391 391-391zm0 .92c215.44 0 390.08 174.645 390.08 390.08S675.44 637.08 460 637.08 69.92 462.435 69.92 247 244.565-143.08 460-143.08zm0 12.88c208.32 0 377.2 168.878 377.2 377.2S668.32 624.2 460 624.2 82.8 455.322 82.8 247 251.678-130.2 460-130.2zm0 .92c207.81 0 376.28 168.466 376.28 376.28S667.81 623.28 460 623.28 83.72 454.814 83.72 247 252.186-129.28 460-129.28zm0 12.88c200.7 0 363.4 162.7 363.4 363.4S660.7 610.4 460 610.4 96.6 447.7 96.6 247 259.3-116.4 460-116.4zm0 .92c200.19 0 362.48 162.288 362.48 362.48S660.19 609.48 460 609.48 97.52 447.192 97.52 247 259.808-115.48 460-115.48zm0 12.88c193.08 0 349.6 156.521 349.6 349.6S653.08 596.6 460 596.6 110.4 440.079 110.4 247 266.921-102.6 460-102.6zm0 .92c192.57 0 348.68 156.109 348.68 348.68S652.57 595.68 460 595.68 111.32 439.571 111.32 247 267.429-101.68 460-101.68zm0 12.88c185.46 0 335.8 150.343 335.8 335.8S645.46 582.8 460 582.8 124.2 432.457 124.2 247 274.543-88.8 460-88.8zm0 .92c184.95 0 334.88 149.931 334.88 334.88S644.95 581.88 460 581.88 125.12 431.949 125.12 247 275.051-87.88 460-87.88zM460-75c177.84 0 322 144.164 322 322S637.84 569 460 569 138 424.836 138 247 282.164-75 460-75zm0 .92c177.33 0 321.08 143.753 321.08 321.08S637.33 568.08 460 568.08 138.92 424.328 138.92 247 282.672-74.08 460-74.08zm0 12.88c170.21 0 308.2 137.986 308.2 308.2S630.21 555.2 460 555.2 151.8 417.214 151.8 247 289.786-61.2 460-61.2zm0 .92c169.71 0 307.28 137.574 307.28 307.28S629.71 554.28 460 554.28 152.72 416.706 152.72 247 290.294-60.28 460-60.28zm0 12.88c162.59 0 294.4 131.807 294.4 294.4S622.59 541.4 460 541.4 165.6 409.593 165.6 247 297.407-47.4 460-47.4zm0 .92c162.08 0 293.48 131.4 293.48 293.48S622.08 540.48 460 540.48 166.52 409.085 166.52 247 297.915-46.48 460-46.48zm0 12.88c154.97 0 280.6 125.629 280.6 280.6S614.97 527.6 460 527.6 179.4 401.971 179.4 247 305.029-33.6 460-33.6zm0 .92c154.46 0 279.68 125.217 279.68 279.68S614.46 526.68 460 526.68 180.32 401.463 180.32 247 305.537-32.68 460-32.68zm0 12.88c147.35 0 266.8 119.45 266.8 266.8S607.35 513.8 460 513.8 193.2 394.35 193.2 247 312.65-19.8 460-19.8zm0 .92c146.84 0 265.88 119.039 265.88 265.88S606.84 512.88 460 512.88 194.12 393.841 194.12 247 313.159-18.88 460-18.88zM460-6c139.73 0 253 113.272 253 253S599.73 500 460 500 207 386.728 207 247 320.272-6 460-6zm0 .92c139.22 0 252.08 112.86 252.08 252.08S599.22 499.08 460 499.08 207.92 386.22 207.92 247 320.78-5.08 460-5.08zm0 12.88c132.11 0 239.2 107.094 239.2 239.2S592.11 486.2 460 486.2 220.8 379.107 220.8 247 327.894 7.8 460 7.8zm0 .92c131.6 0 238.28 106.682 238.28 238.28S591.6 485.28 460 485.28 221.72 378.6 221.72 247 328.4 8.72 460 8.72zm0 12.88c124.48 0 225.4 100.915 225.4 225.4S584.48 472.4 460 472.4 234.6 371.485 234.6 247 335.515 21.6 460 21.6zm0 .92c123.98 0 224.48 100.5 224.48 224.48S583.98 471.48 460 471.48 235.52 370.977 235.52 247 336.023 22.52 460 22.52zm0 12.88c116.86 0 211.6 94.737 211.6 211.6S576.86 458.6 460 458.6 248.4 363.863 248.4 247 343.137 35.4 460 35.4zm0 .92c116.36 0 210.68 94.325 210.68 210.68S576.36 457.68 460 457.68 249.32 363.355 249.32 247 343.645 36.32 460 36.32zm0 12.88c109.24 0 197.8 88.558 197.8 197.8S569.24 444.8 460 444.8 262.2 356.242 262.2 247 350.758 49.2 460 49.2zm0 .92c108.73 0 196.88 88.146 196.88 196.88S568.73 443.88 460 443.88 263.12 355.734 263.12 247 351.266 50.12 460 50.12zM460 63a184 184 0 1 1-184 184A184 184 0 0 1 460 63zm0 .92A183.08 183.08 0 1 1 276.92 247 183.082 183.082 0 0 1 460 63.92zm0 12.88A170.2 170.2 0 1 1 289.8 247 170.2 170.2 0 0 1 460 76.8zm0 .92A169.28 169.28 0 1 1 290.72 247 169.28 169.28 0 0 1 460 77.72zm0 12.88A156.4 156.4 0 1 1 303.6 247 156.4 156.4 0 0 1 460 90.6zm0 .92A155.48 155.48 0 1 1 304.52 247 155.48 155.48 0 0 1 460 91.52zm0 12.88A142.6 142.6 0 1 1 317.4 247 142.6 142.6 0 0 1 460 104.4zm0 .92A141.68 141.68 0 1 1 318.32 247 141.678 141.678 0 0 1 460 105.32zm0 12.88A128.8 128.8 0 1 1 331.2 247 128.8 128.8 0 0 1 460 118.2zm0 .92A127.88 127.88 0 1 1 332.12 247 127.878 127.878 0 0 1 460 119.12zm0 12.88a115 115 0 1 1-115 115 115 115 0 0 1 115-115zm0 .92A114.08 114.08 0 1 1 345.92 247 114.083 114.083 0 0 1 460 132.92zm0 12.88A101.2 101.2 0 1 1 358.8 247 101.2 101.2 0 0 1 460 145.8zm0 .92A100.28 100.28 0 1 1 359.72 247 100.282 100.282 0 0 1 460 146.72zm0 12.88a87.4 87.4 0 1 1-87.4 87.4 87.4 87.4 0 0 1 87.4-87.4zm0 .92A86.48 86.48 0 1 1 373.52 247 86.481 86.481 0 0 1 460 160.52zm0 12.88a73.6 73.6 0 1 1-73.6 73.6 73.6 73.6 0 0 1 73.6-73.6zm0 .92A72.68 72.68 0 1 1 387.32 247 72.68 72.68 0 0 1 460 174.32z"/></svg>